<svg xmlns="http://www.w3.org/2000/svg"><symbol id="adopt-us" viewBox="0 0 275 275"><path d="M265.9 137.6c-.5 71.1-57.3 129-130 128.2A127.7 127.7 0 0 1 9.1 137.1C9.2 66.2 66.4 8 139.7 9.2c69.6 1.1 125.7 57.1 126.2 128.4zm-21.1-18.7c-1.5-2.1-2.5-3.6-3.6-4.9-11.9-13.2-26.7-21.8-43.3-27.5-32.9-11.2-66.5-11.4-100.3-5.7-19.9 3.4-38.4 10.8-54.3 23.5-5 4-9.3 8.9-14.9 14.2l43.2 18.9c.1-9.7-2-18.4 1.9-26.9 1.7 2.5 3 5 3.1 7.6.3 18.9.2 37.8.5 56.7 0 2.3 1.1 5.6 2.9 6.8 5.7 3.9 11.6 7.9 18 10.1 22 7.7 44.7 7.2 67.3 3.1 10.7-2 20.8-5.9 28.9-13.5a9.8 9.8 0 0 0 2.8-6.3c0-9.3-.8-18.6-.6-27.9.2-10.9 1.1-21.8 1.8-32.7.1-1.4 1.3-2.8 2-4.2l1.5.3c2.6 8.4.6 17.2.9 26.7z"/><path fill="#fff" d="M244.8 118.9l-42.2 18.3c-.3-9.4 1.7-18.2-.9-26.7l-1.5-.3c-.7 1.4-1.9 2.8-2 4.2-.8 10.9-1.6 21.8-1.8 32.7-.2 9.3.7 18.6.6 27.9a9.8 9.8 0 0 1-2.8 6.4c-8.1 7.6-18.2 11.6-28.9 13.5-22.6 4.1-45.3 4.6-67.3-3.1-6.4-2.3-12.3-6.3-18-10.1-1.7-1.2-2.8-4.5-2.9-6.8-.3-18.9-.2-37.8-.5-56.7 0-2.6-1.4-5.1-3.1-7.6-3.9 8.4-1.8 17.1-1.9 26.9l-43.2-19c5.6-5.3 9.9-10.2 14.9-14.2 15.9-12.7 34.4-20.1 54.3-23.5 33.8-5.7 67.3-5.5 100.2 5.7 16.6 5.7 31.5 14.3 43.3 27.5 1.2 1.3 2.1 2.8 3.7 4.9zm-107.3 21.3c-6.9 1.4-13.1 2.5-19.2 4.1-1.6.4-2.8 2.3-4.1 3.6 1.2 1.3 2.1 3 3.5 3.7 5.6 2.7 11.3 5.1 17 7.4a5 5 0 0 0 3.5.2c6.2-2.6 12.5-5.1 18.5-8.4 3.7-2 3.5-4.5-.4-5.8-6.3-2.1-12.7-3.3-18.8-4.8zm40.5-17.3c-.1-3.3-3-6.3-6.2-6.3s-6.3 3.6-6.2 6.5a6.5 6.5 0 0 0 6.4 6 6.1 6.1 0 0 0 6-6.2zm-71.9.4a6.5 6.5 0 0 0-5.9-6.6 6.4 6.4 0 0 0-6.1 6.3c.1 3.7 2.1 5.8 5.7 6.1a5.8 5.8 0 0 0 6.3-5.8z"/><path d="M137.5 140.2c6.1 1.5 12.5 2.7 18.7 4.8 4 1.4 4.1 3.8.4 5.8-5.9 3.2-12.2 5.7-18.5 8.4a5 5 0 0 1-3.5-.2c-5.7-2.4-11.4-4.8-17-7.4-1.4-.7-2.4-2.4-3.5-3.7 1.4-1.2 2.5-3.1 4.1-3.6 6.2-1.6 12.4-2.6 19.3-4.1zm40.5-17.3a6.1 6.1 0 0 1-6 6.2 6.5 6.5 0 0 1-6.4-6c0-2.9 3.4-6.4 6.2-6.5s6.1 3 6.2 6.3zm-71.9.4a5.8 5.8 0 0 1-6.3 5.9c-3.6-.4-5.6-2.5-5.7-6.1a6.4 6.4 0 0 1 6.1-6.3 6.5 6.5 0 0 1 5.9 6.5z"/></symbol><symbol id="application" viewBox="0 0 275 275"><path d="M62.1 259.8V148c4.1 8.9 10.4 17 10.5 27.1.3 24.5.1 49 .1 73.8h163.7V90.3h-63.7v-64h-100v29.9c-6.2-12.9-14-25.2-10.2-40.8l4.4-.2c35 0 70-.1 105 .1a11.4 11.4 0 0 1 7.2 3q32.9 32.5 65.4 65.4c1.5 1.5 2.9 3.9 2.9 5.8q.2 84.2.1 168.5a16.5 16.5 0 0 1-.2 1.8zm159-181.5l-36.5-36.5v36.5z"/><path d="M125.9 222.8c0 4.2.2 8.3-.1 12.5-.1 1.6-1 4.1-2.1 4.5a6.2 6.2 0 0 1-5.2-1.4c-6-6-11.7-12.3-17.4-18.6a13.1 13.1 0 0 1-2.2-3.9L28.7 43.8c-2.5-6-1.4-11.3 2.9-15s12.3-5.3 16.8-2.4a14.4 14.4 0 0 1 5.4 6.2q35.6 86.7 70.7 173.5c2 5 1.2 11.1 1.6 16.7zm7.7 7.1v-9.7h74.6v-25h-71.8c-9.1 0-9.1 0-11.5-9.7h92.6v44.4zM93 46.2h59.4V75H93zm9.9 19.8h38c3.9 0 2.4-3.3 2.5-5.3s1.4-5.2-2.5-5.2h-38zm-6.8 49.3h121.1v9.9h-109c-9.4 0-9.4 0-12.1-9.9zm121.3 35.1v9.8h-96.1c-8.4 0-9-.5-10.6-9.8z"/><path fill="#fff" d="M221.1 78.3h-36.5V41.8zM102.9 66V55.4h37.9c3.9 0 2.6 3.3 2.5 5.2s1.5 5.2-2.5 5.3z"/></symbol><symbol id="logo" viewBox="0 0 275.5 275.5"><path fill="#010101" d="M160.9 192a33.9 33.9 0 0 0 7.8-2.4c1.3-.6 2.6-1 3.8-1.7l5.3-3.2a4.1 4.1 0 0 0 1-1 49.6 49.6 0 0 0 3.4-4.6c1-1.6 2-3.6 3-5.4a28.3 28.3 0 0 0 1.8-4c1-3 2-5.9 2.7-8.9a57.8 57.8 0 0 0 1.5-10.9v-.6c-.1-3-.1-6-.3-9a59.1 59.1 0 0 0-.9-6.3 41.5 41.5 0 0 0-2.4-8.7 10.8 10.8 0 0 1-.3-1.5l-.5-.9-1.8-4a26.6 26.6 0 0 0-1.5-2.7c-1-1.6-2-3.2-3.1-4.7a62.6 62.6 0 0 0-4.4-4.9l-2.2-2.1h.1c-6.3-4.3-8.7-10.8-10.1-18-.7-3.7-.8-7.9-2.5-11.1-5-9.4-10.5-18.2-16-27.4-6.1 8-5.5 18.5-9.8 27.7-11-7.5-13.3-18.9-14.8-30.7l-1.5.4a22.5 22.5 0 0 0-1.4 4.6c-.7 7.8-1.3 15.6-1.9 23.4s-2 12.7-7.9 17-10.1 8.1-15.3 12.1-5.5 6.3-4.5 10.8-.7 7-3.7 9.1-7.6 4.7-11.4 7.1a68.3 68.3 0 0 0-10.6 7.5 8.6 8.6 0 0 0-2.1 6.5 74.1 74.1 0 0 0 3.2 12.4c.5 1.6 1.3 3.9 2.5 4.5 4.8 2.3 9.8 5.1 15 5.9a149.6 149.6 0 0 0 22.3 1.4c7.4.5 9.2-.5 15.9-5.4s11.7-4.4 15 4.8a102.3 102.3 0 0 1 5.2 22.6 34.2 34.2 0 0 0 6.4 2.1 37.5 37.5 0 0 0 15 .2z"/><path fill="#010101" d="M211.9 158l-5.6-8.3c0 .7-.1 1.5-.1 2.2a3.6 3.6 0 0 1 .1.7 61.6 61.6 0 0 1-.5 10.5l-.2.7-.3 2.6a59 59 0 0 1-2.9 10.5c-.9 2.1-1.7 4.1-2.7 6.2a42.8 42.8 0 0 1-2.5 4.5c-1.3 2.1-2.7 4.1-4.2 6.1a38.9 38.9 0 0 1-2.9 3.3 36.6 36.6 0 0 1-3.1 3.2c-2 1.6-4 3.3-6 4.7a41.6 41.6 0 0 1-5.7 3.4 50.3 50.3 0 0 1-6.7 2.6c-2.3.7-4.7 1.2-7.1 1.8h-.5l-3.2.5-9.3-.2-2.5-.5-2.4-.4-3.3-.9v1.7c-.4 5.1.7 10.4 1.7 15.6.2 1.1 3 2.5 4.5 2.4 7.4-.6 14.9-1.4 22.2-2.5 13.7-2.2 26.3-6.3 32.3-20.7a7.7 7.7 0 0 1 3.5-4c6.4-2.7 7.9-8 8.4-14.1a150.3 150.3 0 0 1 1.9-16.2 19.8 19.8 0 0 0-2.9-15.4z"/><path fill="#f69799" d="M206.3 152.6a3.6 3.6 0 0 0-.1-.7c0-.7.1-1.5.1-2.2v-.2a67.9 67.9 0 0 0-2.4-13.7 69.6 69.6 0 0 0-2.6-7.3 47.9 47.9 0 0 0-2.2-4.7 38.7 38.7 0 0 0-2.1-3.4l-2.4-3.8h-.2a1.4 1.4 0 0 0-.1-.5l-.6-.7-5.2-6-1.1-1 3.5-.2a21.5 21.5 0 0 0 .5-6.3v-.4l.2-1.7-1.6.3-.8-.2h-12.8a.9.9 0 0 0-.9.6l-1.7 3.9h-.1l2.2 2.1c1.5 1.6 3 3.2 4.4 4.9a37.9 37.9 0 0 1 3.1 4.7 26.6 26.6 0 0 1 1.5 2.7l1.8 4 .5.9a10.8 10.8 0 0 0 .3 1.5 41.5 41.5 0 0 1 2.4 8.7c.3 2.1.8 4.2.9 6.3s.2 6 .3 9v.6a57.8 57.8 0 0 1-1.5 10.9 91.3 91.3 0 0 1-2.7 8.9 28.3 28.3 0 0 1-1.8 4c-1 1.8-1.9 3.7-3 5.4s-2.3 3.1-3.4 4.6a4.1 4.1 0 0 1-1 1l-5.3 3.2a35.5 35.5 0 0 1-3.8 1.7 33.9 33.9 0 0 1-7.8 2.4 37.5 37.5 0 0 1-14.7-.3 34.2 34.2 0 0 1-6.4-2.1l-3.3-1.6a53.7 53.7 0 0 1-5.4-3.3 12.4 12.4 0 0 1-3.3-3.8c-1.2-2.1-2.6-4.1-3.7-6.2a48.6 48.6 0 0 1-3.7-9.3l-.9-3.1-1 .7a28.7 28.7 0 0 1-3.6 2.4l.7 3.1-6.7 1.5-.6-2.4h-4.8c.3 1.6.7 3.3 1.1 4.9a63.7 63.7 0 0 0 2.5 7.1 41.2 41.2 0 0 0 2.3 4.8 62.6 62.6 0 0 0 3.4 5.5 64.1 64.1 0 0 0 3.9 5.2 27.9 27.9 0 0 0 2.6 2.8 61.5 61.5 0 0 0 4.8 4.2c1.9 1.5 4 2.7 5.9 4.1a38.2 38.2 0 0 0 5.9 3.1 32.1 32.1 0 0 0 4.5 1.6l3.3.9 2.4.4 2.5.5 9.3.2 3.2-.5h.4c2.4-.6 4.8-1.1 7.1-1.8a50.3 50.3 0 0 0 6.7-2.6 41.6 41.6 0 0 0 5.7-3.4c2.1-1.5 4.1-3.1 6-4.7a36.6 36.6 0 0 0 3.1-3.2 38.9 38.9 0 0 0 2.9-3.3c1.5-2 2.9-4 4.2-6.1a42.8 42.8 0 0 0 2.5-4.5c1-2 1.8-4.1 2.7-6.2a59 59 0 0 0 2.9-10.5 20.6 20.6 0 0 0 .3-2.6l.2-.7a61.6 61.6 0 0 0 .6-10.1zM128 197.3l-10.8-10.1 2.7-2.6 1.7-1.8c.3-.3.5-.3.7 0l3.7 3.6 1.5 1.3 3.9 3.8 1.4 1.2zm33.2 8h-15.1v-6.6h13.7c1.4 0 1.4 0 1.4 1.5zm17.2-7.2l-4.1-5.3 12.2-8.6 4 5.4zm19.6-22.9l-6.4-2.3a15.5 15.5 0 0 1 .7-2.3l2-5.2c.5-1.3 1-2.7 1.4-4.1s.4-.6.8-.4l5.9 2z"/></symbol><symbol id="donate" viewBox="0 0 275 275"><path d="M262.8 188.8c-16.3 22.1-32.4 44.2-48.9 66.1-5.2 6.9-12.2 10.9-21.3 10.8-23-.2-46 .1-69-.2-4.5-.1-9-2.3-13.4-3.6a6.5 6.5 0 0 1-1.8-1.1c-22.4-16.1-47-23.3-74.8-21.5-16.1 1-21.2-5.1-21.2-21.2 0-11.4-.1-22.8 0-34.2S18 168 28.3 166.4a181 181 0 0 0 24.2-5.1c23.8-7 47-5.2 66 10.6 21.2 17.5 45.2 22.2 71.2 24 8.1.6 13.8-1.2 19.2-6.9s10.7-10.1 15.9-15.3c15.1-14.8 28-13.2 38.1 4.9zM26.7 183c0 10.8.3 22.6-.1 34.4-.2 6.1 1.9 7.9 7.6 7.4 29.7-2.2 56.7 5.6 80.9 23.1l.6.4c3.6 1 7.1 2.7 10.7 2.8 21.3.3 42.7 0 64 .2 6.2.1 10.2-2.5 13.5-7.4 5.7-8.4 11.6-16.8 17.7-24.9 8.1-10.8 16.5-21.4 24.5-32.2 1.1-1.5.5-4.1.7-6.2a47.3 47.3 0 0 0-7-.4c-1 .1-1.9 1.3-2.8 2.1-8.3 7.7-16.7 15.4-24.9 23.3a8 8 0 0 0-2.1 5.3c.2 14.9-5.7 21.8-20.9 22.8s-31.3 1.2-46.9 2.5a35.9 35.9 0 0 1-23.5-6c-8.3-5.5-16.4-11.2-24.8-16.6-4.5-2.8-8.1-5.9-4.7-11.3s8-4 12.3-1.1c8.3 5.5 16.4 11.3 24.9 16.5 3.5 2.1 7.9 4 11.8 3.9 17.1-.4 34.1-1.5 51.1-2.7 2.2-.2 4.2-2.7 6.3-4.1-2-1.5-3.9-4-6.1-4.4-5.8-1-11.8-1.2-17.7-1.6-19.8-1.4-38.3-6.2-53.7-19.5a90.3 90.3 0 0 0-12.9-8.9c-13.3-7.9-27.7-9.5-42.5-6.5-11.8 2.3-23.3 5.9-36 9.1z"/><path d="M165.1 34.6l9.8-9.5c20.4-19.2 45.1-21 65.5-4.6s25.8 44.2 11.4 66.3a234.7 234.7 0 0 1-32.3 40.2c-14.7 14.3-31.6 26.4-47.5 39.4-4.2 3.4-8.3 3.9-12.9.6-25.3-18.1-49.6-37.5-68.9-62.2-10.7-13.7-20.8-28-19.5-46.7s11.2-35 29.3-43.7 34.6-6.3 49.8 6.1c5.3 4.3 10.1 9.2 15.3 14.1zm1.4 120c17.8-16 36.1-31.5 53-48.2 8.3-8.2 14.9-18.4 21-28.5 9.1-15.1 5-34.5-8.5-45.6s-30.4-11.2-45.1 1.7c-5 4.4-9.1 9.6-13.7 14.4s-10.1 6.2-16.1 0-11-11.8-17.1-17-14.2-8.5-23-7.1c-26.9 4.1-40.1 31.9-26.3 55.5 18.2 31.1 46.1 52.4 75.8 74.8z"/><path fill="#fff" d="M26.7 183c12.7-3.3 24.2-6.8 36-9.2 14.8-3 29.3-1.4 42.5 6.5a90.3 90.3 0 0 1 12.9 8.9c15.5 13.4 33.9 18.2 53.7 19.5 5.9.4 11.9.6 17.7 1.6 2.2.4 4.1 2.9 6.1 4.4-2.1 1.4-4.1 3.9-6.3 4.1-17 1.2-34.1 2.3-51.1 2.7-3.9.1-8.3-1.8-11.8-3.9-8.5-5.1-16.6-11-24.9-16.5-4.4-2.9-9-4.3-12.3 1.1s.3 8.5 4.7 11.3c8.4 5.3 16.5 11.1 24.8 16.6a35.9 35.9 0 0 0 23.5 6c15.6-1.3 31.3-1.5 46.9-2.5s21.1-7.9 20.9-22.8a8 8 0 0 1 2.1-5.3c8.2-7.9 16.6-15.6 24.9-23.3.9-.8 1.8-2 2.8-2.1a47.3 47.3 0 0 1 7 .4c-.2 2.1.4 4.8-.7 6.2-8 10.9-16.5 21.4-24.5 32.2-6.1 8.2-11.9 16.5-17.7 24.9-3.3 4.9-7.3 7.5-13.5 7.4-21.3-.3-42.7 0-64-.2-3.6 0-7.1-1.8-10.7-2.8l-.6-.4c-24.2-17.3-51.1-25.1-80.9-22.9-5.8.4-7.9-1.3-7.6-7.4.5-11.8.1-23.7.1-34.5zm139.8-28.4c-29.7-22.3-57.5-43.7-75.7-74.8-13.9-23.6-.7-51.4 26.2-55.6 8.8-1.4 16.6 1.6 23 7.1s11.4 11.3 17.1 17 10.2 6.2 16.1 0 8.8-10 13.7-14.4c14.7-12.9 30.8-13.4 45.1-1.7s17.6 30.5 8.5 45.6c-6.1 10.1-12.7 20.3-21 28.5-17 16.8-35.2 32.2-53 48.3z"/></symbol><symbol id="toggle" viewBox="0 0 275 275"><path d="M137.5 75.3H202a39.5 39.5 0 0 1 4.5.2 11.9 11.9 0 0 1 10.8 11.7 12.5 12.5 0 0 1-10.9 12.3l-4 .2H72.9a23.7 23.7 0 0 1-6-.5c-5.6-1.5-9.7-7.3-9.2-12.8A12 12 0 0 1 69 75.6c5.3-.4 10.7-.2 16-.2zm.5 50.1h63a51.2 51.2 0 0 1 5.5.2 11.9 11.9 0 0 1 10.8 11.7 12.2 12.2 0 0 1-10.9 12.2c-5 .4-10 .2-15 .2h-118a22.7 22.7 0 0 1-9.1-1.8 11.7 11.7 0 0 1-6.4-12.4 12.5 12.5 0 0 1 10.7-9.8 43.1 43.1 0 0 1 5.5-.2h64zm-.5 49.9H202a39.3 39.3 0 0 1 4.5.2 11.9 11.9 0 0 1 10.8 11.7 12.5 12.5 0 0 1-10.9 12.3l-4 .2H72.9a22.2 22.2 0 0 1-6.4-.7 12.5 12.5 0 0 1-8.8-12.6A12.1 12.1 0 0 1 69 175.6c5.3-.4 10.7-.2 16-.2z"/></symbol><symbol id="wordmark" viewBox="0 0 1079.1 264.5"><path fill="none" d="M89.9 170.7l6.7-1.5-.7-3.1a16.2 16.2 0 0 1-6.5 2.2zm18.5 17.7l-1.5-1.3-3.7-3.6c-.3-.3-.5-.3-.7 0l-1.7 1.8-2.7 2.6 10.7 10.2 4.9-4.7-1.4-1.2zm-8-25.4l.9 3.1a48.6 48.6 0 0 0 3.7 9.3c1.1 2.1 2.5 4.1 3.7 6.2a12.4 12.4 0 0 0 3.3 3.8 53.7 53.7 0 0 0 5.4 3.3l3.3 1.6a102.3 102.3 0 0 0-5.2-22.6c-3.3-9.1-7.6-10.2-15.1-4.7z"/><path d="M135.3 206.1h6.7v-5.2c0-1.7 0-1.5-1.4-1.5h-13.7v6.6h8.4zm36.1-15.8l-4-5.4-12.2 8.6 4.1 5.3zm11.9-26.4l-5.9-2c-.5-.2-.7 0-.8.4s-.9 2.7-1.4 4.1l-2 5.2c-.3.7-.4 1.5-.7 2.3l6.4 2.3z"/><path fill="#010101" d="M143.9 186.3a33.9 33.9 0 0 0 7.8-2.4c1.3-.6 2.6-1 3.8-1.7l5.3-3.2a4.1 4.1 0 0 0 1-1 49.6 49.6 0 0 0 3.4-4.6c1-1.6 2-3.6 3-5.4a28.3 28.3 0 0 0 1.8-4c1-3 2-5.9 2.7-8.9a57.8 57.8 0 0 0 1.5-10.9v-.6c-.1-3-.1-6-.3-9a59.1 59.1 0 0 0-.9-6.3 41.5 41.5 0 0 0-2.4-8.7 10.8 10.8 0 0 1-.3-1.5l-.5-.9-1.8-4a26.6 26.6 0 0 0-1.5-2.7c-1-1.6-2-3.2-3.1-4.7a62.6 62.6 0 0 0-4.4-4.9l-2.2-2.1h.1c-6.3-4.3-8.7-10.8-10.1-18-.7-3.7-.8-7.9-2.5-11.1-4.9-9.1-10.4-17.9-15.9-27.2-6.1 8-5.5 18.5-9.8 27.7-11-7.5-13.3-18.9-14.8-30.7l-1.5.4a22.5 22.5 0 0 0-1.4 4.6c-.7 7.8-1.3 15.6-1.9 23.4s-2 12.7-7.9 17S80.9 93 75.7 97s-5.5 6.3-4.5 10.8-.7 7-3.7 9.1-7.6 4.7-11.4 7.1a68.3 68.3 0 0 0-10.5 7.5 8.6 8.6 0 0 0-2.1 6.5 74.1 74.1 0 0 0 3.2 12.4c.5 1.6 1.3 3.9 2.5 4.5 4.8 2.3 9.8 5.1 15 5.9a149.6 149.6 0 0 0 22.3 1.4c7.4.5 9.2-.5 15.9-5.4s11.7-4.4 15 4.8a102.3 102.3 0 0 1 5.2 22.6 34.2 34.2 0 0 0 6.4 2.1 37.5 37.5 0 0 0 14.9 0z"/><path fill="#010101" d="M194.8 152.3l-5.6-8.3c0 .7-.1 1.5-.1 2.2a3.6 3.6 0 0 1 .1.7 61.6 61.6 0 0 1-.5 10.5l-.2.7-.3 2.6a59 59 0 0 1-2.9 10.5c-.9 2.1-1.7 4.1-2.7 6.2a42.8 42.8 0 0 1-2.5 4.5c-1.3 2.1-2.7 4.1-4.2 6.1a38.9 38.9 0 0 1-2.9 3.3 36.6 36.6 0 0 1-3.1 3.2c-2 1.6-4 3.3-6 4.7a41.6 41.6 0 0 1-5.7 3.4 50.3 50.3 0 0 1-6.7 2.6c-2.3.7-4.7 1.2-7.1 1.8h-.4l-3.2.5-9.3-.2-2.5-.5-2.4-.4-3.3-.9v1.5c-.4 5.1.7 10.4 1.7 15.6.2 1.1 3 2.5 4.5 2.4 7.4-.6 14.9-1.4 22.2-2.5 13.7-2.2 26.3-6.3 32.3-20.7a7.7 7.7 0 0 1 3.5-4c6.4-2.7 7.9-8 8.4-14.1a150.3 150.3 0 0 1 1.9-16.2 19.3 19.3 0 0 0-3-15.2z"/><path fill="#f69799" d="M189.3 146.9a3.6 3.6 0 0 0-.1-.7c0-.7.1-1.5.1-2.2v-.2a67.9 67.9 0 0 0-2.4-13.7 69.6 69.6 0 0 0-2.6-7.3 47.9 47.9 0 0 0-2.2-4.7 38.7 38.7 0 0 0-2.1-3.4l-2.4-3.8h-.2a1.4 1.4 0 0 0-.1-.5l-.6-.7-5.2-6-1.1-1 3.5-.2a21.5 21.5 0 0 0 .5-6.3v-.4l.2-1.7-1.6.3-.8-.2h-12.8a.9.9 0 0 0-.9.6l-1.7 3.9h-.1l2.2 2.1c1.5 1.6 3 3.2 4.4 4.9a37.9 37.9 0 0 1 3.1 4.7 26.6 26.6 0 0 1 1.5 2.7l1.8 4 .5.9a10.8 10.8 0 0 0 .3 1.5 41.5 41.5 0 0 1 2.4 8.7c.3 2.1.8 4.2.9 6.3s.2 6 .3 9v.6a57.8 57.8 0 0 1-1.5 10.9 91.3 91.3 0 0 1-2.7 8.9 28.3 28.3 0 0 1-1.8 4c-1 1.8-1.9 3.7-3 5.4s-2.3 3.1-3.4 4.6a4.1 4.1 0 0 1-1 1l-5.3 3.2a35.5 35.5 0 0 1-3.8 1.7 33.9 33.9 0 0 1-7.8 2.4 37.5 37.5 0 0 1-14.7-.3 34.2 34.2 0 0 1-6.4-2.1l-3.3-1.6a53.7 53.7 0 0 1-5.4-3.3 12.4 12.4 0 0 1-3.3-3.8c-1.2-2.1-2.6-4.1-3.7-6.2a48.6 48.6 0 0 1-3.7-9.3l-.9-3.1-1 .7a28.7 28.7 0 0 1-3.6 2.4l.7 3.1-6.7 1.5-.6-2.4h-4.7c.3 1.6.7 3.3 1.1 4.9a63.7 63.7 0 0 0 2.5 7.1 41.2 41.2 0 0 0 2.3 4.8 62.6 62.6 0 0 0 3.4 5.5 64.1 64.1 0 0 0 3.9 5.2 27.9 27.9 0 0 0 2.6 2.8 61.5 61.5 0 0 0 4.7 4.2c1.9 1.5 4 2.7 5.9 4.1a38.2 38.2 0 0 0 5.9 3.1 32.1 32.1 0 0 0 4.5 1.6l3.3.9 2.4.4 2.5.5 9.3.2 3.2-.5h.4c2.4-.6 4.8-1.1 7.1-1.8a50.3 50.3 0 0 0 6.7-2.6 41.6 41.6 0 0 0 5.7-3.4c2.1-1.5 4.1-3.1 6-4.7a36.6 36.6 0 0 0 3.1-3.2 38.9 38.9 0 0 0 2.9-3.3c1.5-2 2.9-4 4.2-6.1a42.8 42.8 0 0 0 2.5-4.5c1-2 1.8-4.1 2.7-6.2a59 59 0 0 0 2.9-10.5 20.6 20.6 0 0 0 .3-2.6l.2-.7a61.6 61.6 0 0 0 .6-10.1zM111 191.6l-10.8-10.1 2.7-2.6 1.7-1.8c.3-.3.5-.3.7 0l3.7 3.6 1.5 1.3 3.9 3.8 1.4 1.2zm33.2 8H129V193h13.7c1.4 0 1.4 0 1.4 1.5s.1 3.3.1 5.1zm17.2-7.2l-4.1-5.3 12.2-8.6 4 5.4zm19.6-22.8l-6.4-2.3a15.5 15.5 0 0 1 .7-2.3l2-5.2c.5-1.3 1-2.7 1.4-4.1s.4-.6.8-.4l5.9 2z"/><path fill="#231f20" d="M263 144.1h-44.3v-18.8h6.8V84.4h-6.8V65.7h47.9q14.1 0 21.8 1.6a21.4 21.4 0 0 1 11.9 6.7 17.9 17.9 0 0 1 4.3 11.9q0 6.7-4.1 10.6a22.9 22.9 0 0 1-10.3 5.6q8.3 2.5 12.7 7.7a17.9 17.9 0 0 1 4.5 11.9 19.1 19.1 0 0 1-5.1 13.4q-5.1 5.5-13.9 7.2t-25.4 1.8zm-7.2-61.3v14.3h6.7q6.8 0 9-2a6.9 6.9 0 0 0 2-5.2 7.5 7.5 0 0 0-1.9-5q-1.9-2.2-10.2-2.2zm0 28.6v15.4h6.8q6.5 0 9.4-1.7t2.8-6q0-4-2.5-5.9t-9.8-1.9zm97.5 32.7h-38.7v-17.2h5.6v-20.3h-5.6V89.4h34v37.5h4.7zm-35.4-70.2q0-4.5 4.6-7.2a21.4 21.4 0 0 1 11.2-2.7q6.8 0 11 2.8t4.1 7a7.7 7.7 0 0 1-4.3 7 20.7 20.7 0 0 1-10.9 2.6 23.1 23.1 0 0 1-11.2-2.4 7.7 7.7 0 0 1-4.5-7.1zm85.7 70.2h-44.1v-17.2h7.4v-20.3h-7.4V89.4h33.9v13.7a22.8 22.8 0 0 1 5.9-8.8 19 19 0 0 1 7.8-4.8 43.4 43.4 0 0 1 11.1-1.1v24.1h-2.4q-8.7 0-12.9 1.7a11.9 11.9 0 0 0-6 4.7 17.3 17.3 0 0 0-1.7 8h8.3zm67.5-22.5l21.1 4.7a23.6 23.6 0 0 1-11.4 14.3q-8.9 5.1-21.9 5.1-17.2 0-27.2-7.8t-9.8-20.9a26.1 26.1 0 0 1 9.2-20.6q9.2-8 23.1-8 11.7 0 18.1 4.7v-3.7h17.3v23.3h-17.3q-3.2-9.4-10.9-9.4a9.2 9.2 0 0 0-8 4 17.2 17.2 0 0 0-2.8 10q0 6.4 3 10a9.6 9.6 0 0 0 7.8 3.7q7.9 0 9.7-9.4zm69.2 22.5h-43.2v-17.2h7.2v-44h-7.2V65.7h35.5V96q11.3-7.6 22.3-7.6t15.3 5.6q5.6 5.6 5.6 19.9v13h6.4v17.2h-34.7v-22.4q0-10.2-1.2-12.8t-5.2-2.6a15.3 15.3 0 0 0-8.5 2.9v17.7h7.7zm117.7 0h-41.2v-18.8h5.9V84.4h-6V65.7h41.4v18.8h-5v11.9h18.1v-12h-5.1V65.7h41.3v18.8h-5.9v40.9h5.9v18.8h-41.3v-18.9h5.1v-12.9H653v12.9h5zm79.7-39.4l-22.2-2.3a21.2 21.2 0 0 1 11.8-11.3q8.1-3.3 23.8-3.3 5.8 0 10.4.4a69.5 69.5 0 0 1 8.2 1.1q7.5 1.4 11.1 4.3a16.7 16.7 0 0 1 5 6.4q1.5 3.6 1.5 11v15.8h7V144H759v-3.7q-7.3 4.7-19.6 4.7t-17.4-5q-5.9-5.1-5.9-12t7.3-12.6q7.2-4.9 18.8-4.9t16.9 2.8v-1.6a23.6 23.6 0 0 0-.7-7.1 7.2 7.2 0 0 0-3.5-3.7 14 14 0 0 0-6.5-1.5 12 12 0 0 0-10.7 5.3zm21.2 25.4v-10a16.7 16.7 0 0 0-8-2 8.4 8.4 0 0 0-5.9 2 7.5 7.5 0 0 0 5.4 12.8 12.5 12.5 0 0 0 8.6-2.8zm84.3 14.6h-22.7L800 106.5h-5.5V89.4h38.6v17.2H827l9.1 20.8 9.6-20.8h-5.5V89.4h28.3v17.2h-5.3zm74.3-17.9l23.4 2.9a21.7 21.7 0 0 1-4.4 6.6 27.1 27.1 0 0 1-6.9 5q-8.2 4.4-19.6 4.4-19.1 0-28.7-7.9a25.4 25.4 0 0 1-9.6-20.7 26.6 26.6 0 0 1 9.5-20.9q9.4-8.3 25.5-8.3t25.3 7.9q9.6 7.8 10.2 23.8h-43q.2 13.3 9.9 13.3 5.8-.1 8.4-6.1zm-18-14.3h16q.1-1.7.1-1.9a11.8 11.8 0 0 0-2.3-7.4 7.2 7.2 0 0 0-6-2.9 6.6 6.6 0 0 0-5.9 3.2 14.5 14.5 0 0 0-2 7.9q0 .5.1 1zm93.4 31.6h-43.3v-17.2h7v-20.3h-7V89.4H985v6.9a36.3 36.3 0 0 1 22.4-7.9q12 0 15.8 5.8t5.2 18.7v14h6.5v17.2h-34.8v-24.3q0-7.9-1.4-10.5t-5.6-2.5a14.9 14.9 0 0 0-8.1 2.9v17.2h7.9zm-772.7 50.7V168h-4.9v-4.5h14.5a29.4 29.4 0 0 1 7.2.7 8.1 8.1 0 0 1 4.4 3 9 9 0 0 1 1.8 5.7q0 7.1-7.4 8.9l6.3 13h4.4v4.5h-7.7l-8.1-16.7h-5v12.2h4.6v4.5h-15v-4.5zm5.4-16.7h4.2a18.6 18.6 0 0 0 4.5-.4 4.4 4.4 0 0 0 2.5-1.7 5.3 5.3 0 0 0 .9-3.3 4.7 4.7 0 0 0-.9-3 4.1 4.1 0 0 0-2.3-1.5 20.1 20.1 0 0 0-4.2-.3h-4.6zM274 188h-20.9a9.1 9.1 0 0 0 2.7 5.6 8.1 8.1 0 0 0 5.8 2.1 9.5 9.5 0 0 0 8.1-4.1l4.3 1.9a13 13 0 0 1-5.5 4.9 16.4 16.4 0 0 1-7.1 1.6 14.3 14.3 0 0 1-9.8-3.6 12.2 12.2 0 0 1-4.1-9.6 12.4 12.4 0 0 1 3.9-9.4 12.9 12.9 0 0 1 9.1-3.7 13.4 13.4 0 0 1 9.1 3.6q4.2 3.6 4.4 10.7zm-5-3.6a8.9 8.9 0 0 0-2.7-4.7 7.5 7.5 0 0 0-5.4-2.1 7.2 7.2 0 0 0-5 1.9 8.2 8.2 0 0 0-2.5 5zm8.4 14.9v-8.5h4.4v.8a4.1 4.1 0 0 0 1.9 2.9 6.8 6.8 0 0 0 3.9 1.1 7.5 7.5 0 0 0 3.8-.8 2.5 2.5 0 0 0 1.4-2.3 2.2 2.2 0 0 0-1.2-2.1 15.9 15.9 0 0 0-4.6-1.2q-5.1-.9-7.3-2.8a6.4 6.4 0 0 1-2.2-5 6.7 6.7 0 0 1 2.4-5.2 9.2 9.2 0 0 1 6.3-2.1 12.1 12.1 0 0 1 6.1 1.5v-1.1h4.3v8.3h-4.3v-1.5a6.4 6.4 0 0 0-5.8-3.1 5.6 5.6 0 0 0-3.2.8 2.6 2.6 0 0 0-1.2 2.2 1.9 1.9 0 0 0 1.1 1.9 22.9 22.9 0 0 0 4.9 1.1 25.7 25.7 0 0 1 5.5 1.3 6.9 6.9 0 0 1 3.1 2.5 7 7 0 0 1 1.2 4.1 6.6 6.6 0 0 1-2.7 5.5 12.8 12.8 0 0 1-13.4.2v1.4zm46.7-24.9v9.4h-4.4a5.9 5.9 0 0 0-2.2-4.1 6.9 6.9 0 0 0-4.3-1.4 6.8 6.8 0 0 0-5.4 2.3 8.9 8.9 0 0 0-2.1 6.1 10.3 10.3 0 0 0 2 6.2 6.6 6.6 0 0 0 5.7 2.7 7.8 7.8 0 0 0 7.5-4.9l4 1.9q-3.3 7.4-11.7 7.4a11.5 11.5 0 0 1-9.3-4 14 14 0 0 1-3.4-9.3 12.5 12.5 0 0 1 3.7-9.3 11.8 11.8 0 0 1 8.5-3.7 10.4 10.4 0 0 1 7 2.4v-1.7zm30.4 20.5v4.3h-9.2v-2.9q-4.3 3.3-8.2 3.3a7.3 7.3 0 0 1-4.1-1.1 5.2 5.2 0 0 1-2.2-2.8 20.7 20.7 0 0 1-.5-5.6v-11.4h-3.5v-4.3h8.4v15.2a28.1 28.1 0 0 0 .2 3.7 2.5 2.5 0 0 0 .9 1.6 2.8 2.8 0 0 0 1.9.6q3.4 0 7.3-3.2v-13.6h-4.4v-4.3h9.3V195zm28-6.9h-20.9a9.1 9.1 0 0 0 2.7 5.6 8.1 8.1 0 0 0 5.8 2.1 9.5 9.5 0 0 0 8.1-4.1l4.3 1.9a13 13 0 0 1-5.5 4.9 16.4 16.4 0 0 1-7.1 1.6 14.3 14.3 0 0 1-9.8-3.6 12.2 12.2 0 0 1-4.1-9.6 12.4 12.4 0 0 1 3.9-9.4 12.9 12.9 0 0 1 9.1-3.7 13.4 13.4 0 0 1 9.1 3.6q4.3 3.6 4.4 10.7zm-5-3.6a8.9 8.9 0 0 0-2.7-4.7 7.5 7.5 0 0 0-5.4-2.1 7.2 7.2 0 0 0-5 1.9 8.2 8.2 0 0 0-2.5 5zm46 10.5v4.3H415v-3a11.1 11.1 0 0 1-7.9 3.4 8.6 8.6 0 0 1-5.9-2.2 7.2 7.2 0 0 1-2.5-5.7 7.3 7.3 0 0 1 2.7-5.8 9.5 9.5 0 0 1 6.4-2.3 12.3 12.3 0 0 1 6.8 2.1v-2.5a9.3 9.3 0 0 0-.4-2.9 3.8 3.8 0 0 0-1.7-1.9 6.5 6.5 0 0 0-3.5-.8 5.6 5.6 0 0 0-5.3 2.9l-4.7-1.2q3.1-5.8 10.8-5.8a14 14 0 0 1 4.9.8 7.1 7.1 0 0 1 3 2 6.4 6.4 0 0 1 1.4 2.6 20.1 20.1 0 0 1 .3 4.4v11.5zm-9-4.9a10.4 10.4 0 0 0-6.4-2.5 5 5 0 0 0-3.4 1.2 3.9 3.9 0 0 0-1.4 3.1 4 4 0 0 0 1.2 2.9 4.4 4.4 0 0 0 3.3 1.2 9.7 9.7 0 0 0 6.7-3zm19.6-15.6v3q4.7-3.4 8.6-3.4a6.7 6.7 0 0 1 4 1.1 5.3 5.3 0 0 1 2.1 2.8 18.2 18.2 0 0 1 .5 4.9v12.1h4.2v4.3h-9.1V183q0-2.8-.8-3.7a2.8 2.8 0 0 0-2.1-.9q-3.2 0-7.3 3.2v13.3h4.3v4.3h-13.7v-4.3h4.4v-16.2h-4.4v-4.3zm51.6 20.5v4.3h-9.4v-3.7a11.5 11.5 0 0 1-8.9 4.1 12.4 12.4 0 0 1-8.5-3.3q-3.7-3.3-3.7-9.4a12.7 12.7 0 0 1 3.8-9.7 12.2 12.2 0 0 1 8.5-3.6 11.7 11.7 0 0 1 8.8 4v-9.9h-4.8v-4.3h9.7v31.4zm-25.3-8.1a8.3 8.3 0 0 0 2.3 6.3 8 8 0 0 0 11.1-.1 8.5 8.5 0 0 0 2.4-6.4 7.9 7.9 0 0 0-2.5-6.3 8.4 8.4 0 0 0-5.6-2.1 7.3 7.3 0 0 0-5.6 2.5 8.7 8.7 0 0 0-2.1 6.1zm42.7 8V168h-4.9v-4.5h14.5a29.4 29.4 0 0 1 7.2.7 8.1 8.1 0 0 1 4.4 3 9 9 0 0 1 1.7 5.7q0 7.1-7.4 8.9l6.3 13h4.4v4.5h-7.8l-8.1-16.7h-5v12.2h4.6v4.5h-14.8v-4.5zm5.4-16.7h4.2a18.6 18.6 0 0 0 4.5-.4 4.4 4.4 0 0 0 2.4-1.6 5.3 5.3 0 0 0 .9-3.3 4.7 4.7 0 0 0-.9-3 4.1 4.1 0 0 0-2.3-1.5 20.1 20.1 0 0 0-4.2-.3h-4.6zm48.4 9.9h-21a9.1 9.1 0 0 0 2.7 5.6 8.1 8.1 0 0 0 5.8 2.1 9.5 9.5 0 0 0 8.1-4.1l4.3 1.9a13 13 0 0 1-5.5 4.9 16.4 16.4 0 0 1-7.1 1.6 14.3 14.3 0 0 1-9.8-3.6 12.2 12.2 0 0 1-4.1-9.6 12.4 12.4 0 0 1 3.9-9.4 12.9 12.9 0 0 1 9.1-3.7 13.4 13.4 0 0 1 9.1 3.6q4.3 3.6 4.5 10.7zm-5-3.6a8.9 8.9 0 0 0-2.7-4.7 7.5 7.5 0 0 0-5.4-2.1 7.2 7.2 0 0 0-5 1.9 8.2 8.2 0 0 0-2.5 5zm11.8 10.5v-27.1h-4.5v-4.3h9.4v13.7q4.4-3.6 8.4-3.6a7.4 7.4 0 0 1 4.1 1 5.2 5.2 0 0 1 2.2 2.7 16 16 0 0 1 .6 4.9v12.6h4.2v4.3h-9.3V184a25 25 0 0 0-.2-3.8 2.5 2.5 0 0 0-1-1.6 3.1 3.1 0 0 0-1.9-.6q-2.8 0-7.2 3.2v13.6h4.3v4.3h-13.6v-4.3zm51.2 0v4.3h-8.5v-3a11.1 11.1 0 0 1-7.9 3.4 8.6 8.6 0 0 1-5.9-2.2 7.2 7.2 0 0 1-2.5-5.7 7.3 7.3 0 0 1 2.7-5.8 9.5 9.5 0 0 1 6.4-2.3 12.3 12.3 0 0 1 6.8 2.1v-2.5a9.3 9.3 0 0 0-.4-2.9 3.8 3.8 0 0 0-1.7-1.9 6.5 6.5 0 0 0-3.5-.8 5.6 5.6 0 0 0-5.3 2.9l-4.7-1.2q3.1-5.8 10.8-5.8a14 14 0 0 1 4.9.8 7.1 7.1 0 0 1 3 2 6.4 6.4 0 0 1 1.4 2.6 20.1 20.1 0 0 1 .3 4.4v11.5zm-9-4.9a10.4 10.4 0 0 0-6.4-2.5 5 5 0 0 0-3.4 1.2 3.9 3.9 0 0 0-1.4 3.1 4 4 0 0 0 1.2 2.9 4.4 4.4 0 0 0 3.3 1.2 9.7 9.7 0 0 0 6.7-3zm10.3 9.3V195h4.4v-27.2h-4.4v-4.3h9.2v14.4a12 12 0 0 1 16.9-1.4l.8.7a12.7 12.7 0 0 1 3.5 9.3 13.5 13.5 0 0 1-3.4 9.4 11.2 11.2 0 0 1-8.7 3.8 11.6 11.6 0 0 1-5.5-1.3 9.6 9.6 0 0 1-3.6-2.9v3.7zm9.4-12.4a8.1 8.1 0 0 0 2.4 6.2 7.7 7.7 0 0 0 5.5 2.3 7.6 7.6 0 0 0 5.6-2.4 8.9 8.9 0 0 0 2.4-6.5 7.9 7.9 0 0 0-13.4-6 8.4 8.4 0 0 0-2.6 6.4zm28.1 8v-16.2h-3.9v-4.3h8.7V195h3.9v4.3h-12.6V195zm-.7-29a2.9 2.9 0 0 1 .8-2.1 2.8 2.8 0 0 1 2.1-.9 2.9 2.9 0 0 1 2.1.8 2.9 2.9 0 0 1 0 4.2 2.9 2.9 0 0 1-2.1.9 2.8 2.8 0 0 1-2.1-.9 2.9 2.9 0 0 1-.8-2zm15.2 29v-27.1h-4.4v-4.3h9.3v31.4h3.8v4.3h-13.1v-4.3zm14.8 0v-16.2h-3.9v-4.3h8.7V195h3.9v4.3h-12.6V195zm-.7-29a2.9 2.9 0 0 1 .8-2.1 2.8 2.8 0 0 1 2.1-.9 2.9 2.9 0 0 1 2.1.8 2.9 2.9 0 0 1 0 4.2 2.9 2.9 0 0 1-2.1.9 2.8 2.8 0 0 1-2.1-.9 2.9 2.9 0 0 1-.8-2zm11.3 12.8v-4.3h3.2v-3.8l5-4.6v8.3h4.6v4.3h-4.6v12.1a11.5 11.5 0 0 0 .3 3.6q.3.7 1.6.7a7.3 7.3 0 0 0 2.7-.5v4.5a11.1 11.1 0 0 1-3.8.7 6.1 6.1 0 0 1-3.6-1 4.2 4.2 0 0 1-1.7-2.5 25 25 0 0 1-.4-5.1v-12.4zm40.9 16.2v4.3H726v-3a11.1 11.1 0 0 1-7.9 3.4 8.6 8.6 0 0 1-5.9-2.2 7.2 7.2 0 0 1-2.5-5.7 7.3 7.3 0 0 1 2.7-5.8 9.5 9.5 0 0 1 6.4-2.3 12.3 12.3 0 0 1 6.8 2.1v-2.5a9.3 9.3 0 0 0-.4-2.9 3.8 3.8 0 0 0-1.7-1.9 6.5 6.5 0 0 0-3.5-.8 5.6 5.6 0 0 0-5.3 2.9l-4.7-1.2q3.1-5.8 10.8-5.8a14 14 0 0 1 4.9.8 7.1 7.1 0 0 1 3 2 6.4 6.4 0 0 1 1.4 2.6 20.1 20.1 0 0 1 .3 4.4v11.5zm-9-4.9a10.4 10.4 0 0 0-6.4-2.5 5 5 0 0 0-3.4 1.2 3.9 3.9 0 0 0-1.4 3.1 4 4 0 0 0 1.2 2.9 4.4 4.4 0 0 0 3.3 1.2 9.7 9.7 0 0 0 6.7-3zm10.5-11.3v-4.3h3.2v-3.8l4.9-4.5v8.3h4.7v4.3h-4.6v12.1a11.5 11.5 0 0 0 .3 3.6q.3.7 1.6.7a7.3 7.3 0 0 0 2.7-.5v4.4a11.1 11.1 0 0 1-3.8.7 6.1 6.1 0 0 1-3.6-1 4.2 4.2 0 0 1-1.7-2.5 25 25 0 0 1-.4-5.1v-12.4zm19.2 16.2v-16.2h-3.9v-4.3h8.7V195h3.9v4.3h-12.6V195zm-.7-29a2.9 2.9 0 0 1 .8-2.1 2.8 2.8 0 0 1 2.1-.9 2.9 2.9 0 0 1 2.1.8 2.9 2.9 0 0 1 0 4.2 2.9 2.9 0 0 1-2.1.9 2.8 2.8 0 0 1-2.1-.9 2.9 2.9 0 0 1-.8-2zm11.8 20.9a12.6 12.6 0 0 1 3.8-9.5 12.8 12.8 0 0 1 9.3-3.7 13 13 0 0 1 9.2 3.6 13.7 13.7 0 0 1 0 19 13 13 0 0 1-9.3 3.7 12.8 12.8 0 0 1-13.1-12.5v-.7zm5.2 0a8.3 8.3 0 0 0 2.3 6 7.9 7.9 0 0 0 11.2.1h.1a8.4 8.4 0 0 0 2.3-6 8.3 8.3 0 0 0-2.3-6 7.6 7.6 0 0 0-5.6-2.4 7.4 7.4 0 0 0-5.7 2.4 8.5 8.5 0 0 0-2.4 6zm32.9-12.4v3q4.7-3.4 8.6-3.4a6.7 6.7 0 0 1 4 1.1 5.3 5.3 0 0 1 2.1 2.8 18.2 18.2 0 0 1 .5 4.9v12.1h4.2v4.3h-9.1V183q0-2.8-.8-3.7a2.8 2.8 0 0 0-2.1-.9q-3.2 0-7.3 3.2v13.3h4.3v4.3h-13.7v-4.3h4.4v-16.2h-4.4v-4.3zm33.1 24.9v-13h4.5v3.2q3.2 5.8 8.4 5.8a6.5 6.5 0 0 0 4.5-1.6 5.4 5.4 0 0 0 1.8-4.2 4.3 4.3 0 0 0-1.5-3.7 18 18 0 0 0-5.6-2.2 41.2 41.2 0 0 1-7.1-2.4 9.1 9.1 0 0 1-3.7-3.3 9 9 0 0 1-1.4-5 9.2 9.2 0 0 1 3-7.2 10.9 10.9 0 0 1 7.5-2.7 13 13 0 0 1 8 2.8v-2.4h4.4v10.9h-4.5v-2.5a8.6 8.6 0 0 0-7.6-4.1 6.7 6.7 0 0 0-4.5 1.4 4.1 4.1 0 0 0-1.6 3.2 4.2 4.2 0 0 0 .8 2.5 4.7 4.7 0 0 0 2 1.6l4.9 1.4a38.1 38.1 0 0 1 6.9 2.3 9.3 9.3 0 0 1 3.7 3.6 10.7 10.7 0 0 1 1.5 5.7 9.9 9.9 0 0 1-3.2 7.6 11.3 11.3 0 0 1-8 3 12.8 12.8 0 0 1-8.8-3.5v3zm53.6-11.3h-20.9a9.1 9.1 0 0 0 2.7 5.6 8.1 8.1 0 0 0 5.8 2.1 9.5 9.5 0 0 0 8.1-4.1l4.3 1.9a13 13 0 0 1-5.5 4.9 16.4 16.4 0 0 1-7.1 1.6 14.3 14.3 0 0 1-9.8-3.6 12.2 12.2 0 0 1-4.1-9.6 12.4 12.4 0 0 1 3.9-9.4 12.9 12.9 0 0 1 9.1-3.7 13.4 13.4 0 0 1 9.1 3.6q4.3 3.6 4.4 10.7zm-5-3.6a8.9 8.9 0 0 0-2.7-4.7 7.5 7.5 0 0 0-5.4-2.1 7.2 7.2 0 0 0-5 1.9 8.2 8.2 0 0 0-2.5 5zm12.4 10.5v-16.2h-5v-4.3h8.9v5.6a9.9 9.9 0 0 1 2.3-3.6 7.3 7.3 0 0 1 3.1-1.9 17 17 0 0 1 4.5-.5h1.3v4.9h-1a15.7 15.7 0 0 0-5.6.7 5 5 0 0 0-2.7 2.7q-.9 2-.9 7.1v5.5h5.4v4.3h-15.3v-4.3zm28.3 4.8l-8.1-21h-4.4v-4.3h12.5v4.3h-3.2l5.4 14.1 5.4-14.1h-3.6v-4.3H943v4.3h-3.8l-7.9 21zm21-4.8v-16.2h-3.9v-4.3h8.7V195h3.9v4.3h-12.6V195zm-.7-29a2.9 2.9 0 0 1 .8-2.1 2.8 2.8 0 0 1 2.1-.9 2.9 2.9 0 0 1 2.1.8 2.9 2.9 0 0 1 0 4.2 2.9 2.9 0 0 1-2.1.9 2.8 2.8 0 0 1-2.1-.9 2.9 2.9 0 0 1-.8-2zm35.2 8.5v9.4h-4.4a5.9 5.9 0 0 0-2.2-4.1 6.9 6.9 0 0 0-4.3-1.4 6.8 6.8 0 0 0-5.4 2.3 8.9 8.9 0 0 0-2.1 6.1 10.3 10.3 0 0 0 2 6.2 6.6 6.6 0 0 0 5.7 2.7 7.8 7.8 0 0 0 7.5-4.9l4 1.9q-3.3 7.4-11.7 7.4a11.5 11.5 0 0 1-9.3-4 14.1 14.1 0 0 1-3.4-9.3 12.5 12.5 0 0 1 3.7-9.3 11.8 11.8 0 0 1 8.5-3.7 10.4 10.4 0 0 1 7 2.4v-1.7zm29.5 13.6h-20.9a9.1 9.1 0 0 0 2.7 5.6 8.1 8.1 0 0 0 5.8 2.1 9.5 9.5 0 0 0 8.1-4.1l4.3 1.9a13 13 0 0 1-5.5 4.9 16.4 16.4 0 0 1-7.1 1.6 14.3 14.3 0 0 1-9.8-3.6 12.2 12.2 0 0 1-4.1-9.6 12.4 12.4 0 0 1 3.9-9.4 12.9 12.9 0 0 1 9.1-3.7 13.4 13.4 0 0 1 9.1 3.6q4.3 3.6 4.4 10.7zm-5-3.6a8.9 8.9 0 0 0-2.7-4.7 7.5 7.5 0 0 0-5.4-2.1 7.2 7.2 0 0 0-5 1.9 8.2 8.2 0 0 0-2.5 5zm8.4 14.9v-8.5h4.4v.8a4.1 4.1 0 0 0 1.9 2.9 6.8 6.8 0 0 0 3.9 1.1 7.5 7.5 0 0 0 3.8-.8 2.5 2.5 0 0 0 1.4-2.3 2.2 2.2 0 0 0-1.2-2.1 15.9 15.9 0 0 0-4.6-1.2q-5.1-.9-7.3-2.8a6.4 6.4 0 0 1-2.2-5 6.7 6.7 0 0 1 2.4-5.2 9.2 9.2 0 0 1 6.3-2.1 12.1 12.1 0 0 1 6.1 1.5v-1.1h4.3v8.3h-4.3v-1.5a6.4 6.4 0 0 0-5.8-3.1 5.6 5.6 0 0 0-3.2.8 2.6 2.6 0 0 0-1.2 2.2 1.9 1.9 0 0 0 1.1 1.9 22.9 22.9 0 0 0 4.9 1.1 25.7 25.7 0 0 1 5.5 1.3 6.9 6.9 0 0 1 3.1 2.5 7 7 0 0 1 1.2 4.1 6.6 6.6 0 0 1-2.7 5.5 12.8 12.8 0 0 1-13.4.2v1.4z"/></symbol></svg>