<svg id="Content" xmlns="http://www.w3.org/2000/svg" width="1119.2" height="310.2" viewBox="0 0 1119.2 310.2"><title>Wordmark</title><path d="M108.1,193.7l6.7-1.5-.7-3.1a16.2,16.2,0,0,1-6.5,2.2Z" fill="none"/><path d="M126.6,211.4l-1.5-1.3-3.7-3.6c-.3-.3-.5-.3-.7,0l-1.7,1.8-2.7,2.6L127,221.1l4.9-4.7-1.4-1.2Z" fill="none"/><path d="M118.6,186l.9,3.1a48.6,48.6,0,0,0,3.7,9.3c1.1,2.1,2.5,4.1,3.7,6.2a12.4,12.4,0,0,0,3.3,3.8,53.7,53.7,0,0,0,5.4,3.3l3.3,1.6a102.3,102.3,0,0,0-5.2-22.6C130.4,181.6,126.1,180.5,118.6,186Z" fill="none"/><path d="M153.5,229.1h6.7c0-1.8,0-3.5,0-5.2s0-1.5-1.4-1.5H145.1v6.6h8.4Z"/><path d="M189.6,213.3l-4-5.4-12.2,8.6,4.1,5.3Z"/><path d="M201.5,186.9l-5.9-2c-.5-.2-.7,0-.8.4s-.9,2.7-1.4,4.1l-2,5.2c-.3.7-.4,1.5-.7,2.3l6.4,2.3Z"/><path d="M162.1,209.3a33.9,33.9,0,0,0,7.8-2.4c1.3-.6,2.6-1,3.8-1.7s3.6-2.1,5.3-3.2a4.1,4.1,0,0,0,1-1c1.2-1.5,2.4-3,3.4-4.6s2-3.6,3-5.4a28.3,28.3,0,0,0,1.8-4c1-3,2-5.9,2.7-8.9a57.8,57.8,0,0,0,1.5-10.9V167a3,3,0,0,1-.1-.4c-.1-3-.1-6-.3-9s-.6-4.2-.9-6.3a41.5,41.5,0,0,0-2.4-8.7,10.8,10.8,0,0,1-.3-1.5l-.5-.9c-.6-1.3-1.2-2.7-1.8-4a26.6,26.6,0,0,0-1.5-2.7c-1-1.6-2-3.2-3.1-4.7s-2.9-3.3-4.4-4.9l-2.2-2.1h.1c-6.3-4.3-8.7-10.8-10.1-18-.7-3.7-.8-7.9-2.5-11.1-4.9-9.1-10.4-17.9-15.9-27.2-6.1,8-5.5,18.5-9.8,27.7-11-7.5-13.3-18.9-14.8-30.7l-1.5.4a22.5,22.5,0,0,0-1.4,4.6c-.7,7.8-1.3,15.6-1.9,23.4s-2,12.7-7.9,17-10.1,8.1-15.3,12.1-5.5,6.3-4.5,10.8-.7,7-3.7,9.1-7.6,4.7-11.4,7.1-7.4,4.6-10.5,7.5a8.6,8.6,0,0,0-2.1,6.5,74.1,74.1,0,0,0,3.2,12.4c.5,1.6,1.3,3.9,2.5,4.5,4.8,2.3,9.8,5.1,15,5.9a149.6,149.6,0,0,0,22.3,1.4c7.4.5,9.2-.5,15.9-5.4s11.7-4.4,15,4.8a102.3,102.3,0,0,1,5.2,22.6,34.2,34.2,0,0,0,6.4,2.1A37.5,37.5,0,0,0,162.1,209.3Z" fill="#010101"/><path d="M213,175.3l-5.6-8.3c0,.7-.1,1.5-.1,2.2a3.6,3.6,0,0,1,.1.7,61.6,61.6,0,0,1-.5,10.5,4.5,4.5,0,0,1-.2.7c-.1.9-.2,1.7-.3,2.6a59,59,0,0,1-2.9,10.5c-.9,2.1-1.7,4.1-2.7,6.2a42.8,42.8,0,0,1-2.5,4.5c-1.3,2.1-2.7,4.1-4.2,6.1a38.9,38.9,0,0,1-2.9,3.3,36.6,36.6,0,0,1-3.1,3.2c-2,1.6-4,3.3-6,4.7a41.6,41.6,0,0,1-5.7,3.4,50.3,50.3,0,0,1-6.7,2.6c-2.3.7-4.7,1.2-7.1,1.8h-.4a21.9,21.9,0,0,1-3.2.5l-9.3-.2a16.1,16.1,0,0,1-2.5-.5l-2.4-.4-3.3-.9V230c-.4,5.1.7,10.4,1.7,15.6.2,1.1,3,2.5,4.5,2.4,7.4-.6,14.9-1.4,22.2-2.5,13.7-2.2,26.3-6.3,32.3-20.7a7.7,7.7,0,0,1,3.5-4c6.4-2.7,7.9-8,8.4-14.1s.9-10.9,1.9-16.2S216.3,180.1,213,175.3Z" fill="#010101"/><path d="M207.5,169.9a3.6,3.6,0,0,0-.1-.7c0-.7.1-1.5.1-2.2s0-.1,0-.2a67.9,67.9,0,0,0-2.4-13.7,69.6,69.6,0,0,0-2.6-7.3,47.9,47.9,0,0,0-2.2-4.7c-.6-1.2-1.4-2.3-2.1-3.4l-2.4-3.8h-.2a1.4,1.4,0,0,0-.1-.5l-.6-.7-5.2-6-1.1-1,3.5-.2a21.5,21.5,0,0,0,.5-6.3,1.8,1.8,0,0,0-.1-.4l.2-1.7-1.6.3-.8-.2H177.6a.9.9,0,0,0-.9.6l-1.7,3.9h-.1l2.2,2.1c1.5,1.6,3,3.2,4.4,4.9s2.1,3.1,3.1,4.7a26.6,26.6,0,0,1,1.5,2.7c.6,1.3,1.2,2.7,1.8,4l.5.9a10.8,10.8,0,0,0,.3,1.5,41.5,41.5,0,0,1,2.4,8.7c.3,2.1.8,4.2.9,6.3s.2,6,.3,9a3,3,0,0,0,.1.4v.2a57.8,57.8,0,0,1-1.5,10.9c-.7,3-1.7,6-2.7,8.9a28.3,28.3,0,0,1-1.8,4c-1,1.8-1.9,3.7-3,5.4s-2.3,3.1-3.4,4.6a4.1,4.1,0,0,1-1,1c-1.7,1.1-3.5,2.2-5.3,3.2s-2.5,1.1-3.8,1.7a33.9,33.9,0,0,1-7.8,2.4,37.5,37.5,0,0,1-14.7-.3,34.2,34.2,0,0,1-6.4-2.1l-3.3-1.6a53.7,53.7,0,0,1-5.4-3.3,12.4,12.4,0,0,1-3.3-3.8c-1.2-2.1-2.6-4.1-3.7-6.2a48.6,48.6,0,0,1-3.7-9.3l-.9-3.1-1,.7a28.7,28.7,0,0,1-3.6,2.4l.7,3.1-6.7,1.5-.6-2.4h-4.8c.3,1.6.7,3.3,1.1,4.9a63.7,63.7,0,0,0,2.5,7.1,41.2,41.2,0,0,0,2.3,4.8c1,1.9,2.2,3.7,3.4,5.5s2.5,3.5,3.9,5.2a27.9,27.9,0,0,0,2.6,2.8,61.5,61.5,0,0,0,4.7,4.2c1.9,1.5,4,2.7,5.9,4.1a38.2,38.2,0,0,0,5.9,3.1,32.1,32.1,0,0,0,4.5,1.6l3.3.9,2.4.4a16.1,16.1,0,0,0,2.5.5l9.3.2a21.9,21.9,0,0,0,3.2-.5h.4c2.4-.6,4.8-1.1,7.1-1.8a50.3,50.3,0,0,0,6.7-2.6,41.6,41.6,0,0,0,5.7-3.4c2.1-1.5,4.1-3.1,6-4.7a36.6,36.6,0,0,0,3.1-3.2,38.9,38.9,0,0,0,2.9-3.3c1.5-2,2.9-4,4.2-6.1a42.8,42.8,0,0,0,2.5-4.5c1-2,1.8-4.1,2.7-6.2a59,59,0,0,0,2.9-10.5c.2-.8.2-1.7.3-2.6a4.5,4.5,0,0,0,.2-.7A61.6,61.6,0,0,0,207.5,169.9Zm-78.3,44.7-10.8-10.1,2.7-2.6,1.7-1.8c.3-.3.5-.3.7,0l3.7,3.6,1.5,1.3,3.9,3.8,1.4,1.2Zm33.2,8H147.2V216h13.7c1.4,0,1.4,0,1.4,1.5S162.4,220.8,162.4,222.6Zm17.2-7.2-4.1-5.3,12.2-8.6,4,5.4Zm19.6-22.8-6.4-2.3c.2-.8.4-1.6.7-2.3l2-5.2c.5-1.3,1-2.7,1.4-4.1s.4-.6.8-.4l5.9,2Z" fill="#f69799"/><path d="M281.2,167.1H236.9V148.3h6.8V107.4h-6.8V88.7h47.9q14.1,0,21.8,1.6A21.4,21.4,0,0,1,318.5,97a17.9,17.9,0,0,1,4.3,11.9q0,6.7-4.1,10.6a22.9,22.9,0,0,1-10.3,5.6q8.3,2.5,12.7,7.7a17.9,17.9,0,0,1,4.5,11.9,19.1,19.1,0,0,1-5.1,13.4q-5.1,5.5-13.9,7.2T281.2,167.1ZM274,105.8v14.3h6.7q6.8,0,9-2a6.9,6.9,0,0,0,2-5.2,7.5,7.5,0,0,0-1.9-5q-1.9-2.2-10.2-2.2Zm0,28.6v15.4h6.8q6.5,0,9.4-1.7t2.8-6q0-4-2.5-5.9t-9.8-1.9Z" fill="#231f20"/><path d="M371.5,167.1H332.8V149.9h5.6V129.6h-5.6V112.4h34v37.5h4.7ZM336.1,96.9q0-4.5,4.6-7.2a21.4,21.4,0,0,1,11.2-2.7q6.8,0,11,2.8t4.1,7q0,4.5-4.3,7a20.7,20.7,0,0,1-10.9,2.6,23.1,23.1,0,0,1-11.2-2.4A7.7,7.7,0,0,1,336.1,96.9Z" fill="#231f20"/><path d="M421.8,167.1H377.7V149.9h7.4V129.6h-7.4V112.4h33.9v13.7a22.8,22.8,0,0,1,5.9-8.8,19,19,0,0,1,7.8-4.8,43.4,43.4,0,0,1,11.1-1.1v24.1h-2.4q-8.7,0-12.9,1.7t-6,4.7a17.3,17.3,0,0,0-1.7,8h8.3Z" fill="#231f20"/><path d="M489.3,144.6l21.1,4.7A23.6,23.6,0,0,1,499,163.6q-8.9,5.1-21.9,5.1-17.2,0-27.2-7.8T440.1,140a26.1,26.1,0,0,1,9.2-20.6q9.2-8,23.1-8,11.7,0,18.1,4.7v-3.7h17.3v23.3H490.5q-3.2-9.4-10.9-9.4a9.2,9.2,0,0,0-8,4,17.2,17.2,0,0,0-2.8,10q0,6.4,3,10a9.6,9.6,0,0,0,7.8,3.7Q487.5,154,489.3,144.6Z" fill="#231f20"/><path d="M558.5,167.1H515.3V149.9h7.2v-44h-7.2V88.7h35.5V119q11.3-7.6,22.3-7.6t15.3,5.6q5.6,5.6,5.6,19.9v13h6.4v17.2H565.7V144.7q0-10.2-1.2-12.8t-5.2-2.6a15.3,15.3,0,0,0-8.5,2.9v17.7h7.7Z" fill="#231f20"/><path d="M676.2,167.1H635V148.3h5.9V107.4h-6V88.7h41.4v18.8h-5v11.9h18.1V107.4h-5.1V88.7h41.3v18.8h-5.9v40.9h5.9v18.8H684.3V148.3h5.1V135.4H671.2v12.9h5Z" fill="#231f20"/><path d="M755.9,127.7l-22.2-2.3a21.2,21.2,0,0,1,11.8-11.3q8.1-3.3,23.8-3.3,5.8,0,10.4.4a69.5,69.5,0,0,1,8.2,1.1q7.5,1.4,11.1,4.3a16.7,16.7,0,0,1,5,6.4q1.5,3.6,1.5,11v15.8h7v17.2H777.2v-3.7q-7.3,4.7-19.6,4.7T740.2,163q-5.9-5.1-5.9-12t7.3-12.6q7.2-4.9,18.8-4.9t16.9,2.8v-1.6a23.6,23.6,0,0,0-.7-7.1,7.2,7.2,0,0,0-3.5-3.7,14,14,0,0,0-6.5-1.5A12,12,0,0,0,755.9,127.7Zm21.2,25.4v-10a16.7,16.7,0,0,0-8-2,8.4,8.4,0,0,0-5.9,2,7.6,7.6,0,0,0,.1,10.7,7.6,7.6,0,0,0,5.3,2.1A12.5,12.5,0,0,0,777.2,153.1Z" fill="#231f20"/><path d="M861.4,167.7H838.7l-20.5-38.2h-5.5V112.4h38.6v17.2h-6.1l9.1,20.8,9.6-20.8h-5.5V112.4h28.3v17.2h-5.3Z" fill="#231f20"/><path d="M935.7,149.8l23.4,2.9a21.7,21.7,0,0,1-4.4,6.6,27.1,27.1,0,0,1-6.9,5q-8.2,4.4-19.6,4.4-19.1,0-28.7-7.9a25.4,25.4,0,0,1-9.6-20.7,26.6,26.6,0,0,1,9.5-20.9q9.4-8.3,25.5-8.3t25.3,7.9q9.6,7.8,10.2,23.8H917.4q.2,13.3,9.9,13.3Q933.1,155.8,935.7,149.8Zm-18-14.3h16q.1-1.7.1-1.9a11.8,11.8,0,0,0-2.3-7.4,7.2,7.2,0,0,0-6-2.9,6.6,6.6,0,0,0-5.9,3.2,14.5,14.5,0,0,0-2,7.9A10.1,10.1,0,0,0,917.7,135.4Z" fill="#231f20"/><path d="M1011.1,167.1H967.8V149.9h7V129.6h-7V112.4h35.4v6.9q10.4-7.9,22.4-7.9t15.8,5.8q5.2,5.8,5.2,18.7v14h6.5v17.2h-34.8V142.8q0-7.9-1.4-10.5t-5.6-2.5a14.9,14.9,0,0,0-8.1,2.9v17.2h7.9Z" fill="#231f20"/><path d="M238.4,217.8V191h-4.9v-4.5h14.5a29.4,29.4,0,0,1,7.2.7,8.1,8.1,0,0,1,4.4,3,9,9,0,0,1,1.8,5.7q0,7.1-7.4,8.9l6.3,13h4.4v4.5H257l-8.1-16.7h-5v12.2h4.6v4.5H233.5v-4.5Zm5.4-16.7h4.2a18.6,18.6,0,0,0,4.5-.4A4.4,4.4,0,0,0,255,199a5.3,5.3,0,0,0,.9-3.3,4.7,4.7,0,0,0-.9-3,4.1,4.1,0,0,0-2.3-1.5,20.1,20.1,0,0,0-4.2-.3h-4.6Z" fill="#231f20"/><path d="M292.2,211H271.3a9.1,9.1,0,0,0,2.7,5.6,8.1,8.1,0,0,0,5.8,2.1,9.5,9.5,0,0,0,8.1-4.1l4.3,1.9a13,13,0,0,1-5.5,4.9,16.4,16.4,0,0,1-7.1,1.6,14.3,14.3,0,0,1-9.8-3.6,12.2,12.2,0,0,1-4.1-9.6,12.4,12.4,0,0,1,3.9-9.4,12.9,12.9,0,0,1,9.1-3.7,13.4,13.4,0,0,1,9.1,3.6Q292,203.9,292.2,211Zm-5-3.6a8.9,8.9,0,0,0-2.7-4.7,7.5,7.5,0,0,0-5.4-2.1,7.2,7.2,0,0,0-5,1.9,8.2,8.2,0,0,0-2.5,5Z" fill="#231f20"/><path d="M295.6,222.3v-8.5H300v.8a4.1,4.1,0,0,0,1.9,2.9,6.8,6.8,0,0,0,3.9,1.1,7.5,7.5,0,0,0,3.8-.8,2.5,2.5,0,0,0,1.4-2.3,2.2,2.2,0,0,0-1.2-2.1,15.9,15.9,0,0,0-4.6-1.2q-5.1-.9-7.3-2.8a6.4,6.4,0,0,1-2.2-5,6.7,6.7,0,0,1,2.4-5.2,9.2,9.2,0,0,1,6.3-2.1,12.1,12.1,0,0,1,6.1,1.5v-1.1h4.3v8.3h-4.3v-1.5a6.4,6.4,0,0,0-5.8-3.1,5.6,5.6,0,0,0-3.2.8,2.6,2.6,0,0,0-1.2,2.2,1.9,1.9,0,0,0,1.1,1.9,22.9,22.9,0,0,0,4.9,1.1,25.7,25.7,0,0,1,5.5,1.3,6.9,6.9,0,0,1,3.1,2.5,7,7,0,0,1,1.2,4.1,6.6,6.6,0,0,1-2.7,5.5,11,11,0,0,1-6.9,2,10.9,10.9,0,0,1-6.5-1.8v1.4Z" fill="#231f20"/><path d="M342.3,197.4v9.4h-4.4a5.9,5.9,0,0,0-2.2-4.1,6.9,6.9,0,0,0-4.3-1.4,6.8,6.8,0,0,0-5.4,2.3,8.9,8.9,0,0,0-2.1,6.1,10.3,10.3,0,0,0,2,6.2,6.6,6.6,0,0,0,5.7,2.7,7.8,7.8,0,0,0,7.5-4.9l4,1.9q-3.3,7.4-11.7,7.4a11.5,11.5,0,0,1-9.3-4,14,14,0,0,1-3.4-9.3,12.5,12.5,0,0,1,3.7-9.3,11.8,11.8,0,0,1,8.5-3.7,10.4,10.4,0,0,1,7,2.4v-1.7Z" fill="#231f20"/><path d="M372.7,217.9v4.3h-9.2v-2.9q-4.3,3.3-8.2,3.3a7.3,7.3,0,0,1-4.1-1.1,5.2,5.2,0,0,1-2.2-2.8,20.7,20.7,0,0,1-.5-5.6V201.7h-3.5v-4.3h8.4v15.2a28.1,28.1,0,0,0,.2,3.7,2.5,2.5,0,0,0,.9,1.6,2.8,2.8,0,0,0,1.9.6q3.4,0,7.3-3.2V201.7h-4.4v-4.3h9.3v20.6Z" fill="#231f20"/><path d="M400.7,211H379.8a9.1,9.1,0,0,0,2.7,5.6,8.1,8.1,0,0,0,5.8,2.1,9.5,9.5,0,0,0,8.1-4.1l4.3,1.9a13,13,0,0,1-5.5,4.9,16.4,16.4,0,0,1-7.1,1.6,14.3,14.3,0,0,1-9.8-3.6,12.2,12.2,0,0,1-4.1-9.6,12.4,12.4,0,0,1,3.9-9.4,12.9,12.9,0,0,1,9.1-3.7,13.4,13.4,0,0,1,9.1,3.6Q400.6,203.9,400.7,211Zm-5-3.6a8.9,8.9,0,0,0-2.7-4.7,7.5,7.5,0,0,0-5.4-2.1,7.2,7.2,0,0,0-5,1.9,8.2,8.2,0,0,0-2.5,5Z" fill="#231f20"/><path d="M441.7,217.9v4.3h-8.5v-3a11.1,11.1,0,0,1-7.9,3.4,8.6,8.6,0,0,1-5.9-2.2,7.2,7.2,0,0,1-2.5-5.7,7.3,7.3,0,0,1,2.7-5.8,9.5,9.5,0,0,1,6.4-2.3,12.3,12.3,0,0,1,6.8,2.1v-2.5a9.3,9.3,0,0,0-.4-2.9,3.8,3.8,0,0,0-1.7-1.9,6.5,6.5,0,0,0-3.5-.8,5.6,5.6,0,0,0-5.3,2.9l-4.7-1.2q3.1-5.8,10.8-5.8a14,14,0,0,1,4.9.8,7.1,7.1,0,0,1,3,2,6.4,6.4,0,0,1,1.4,2.6,20.1,20.1,0,0,1,.3,4.4v11.5Zm-9-4.9a10.4,10.4,0,0,0-6.4-2.5,5,5,0,0,0-3.4,1.2,3.9,3.9,0,0,0-1.4,3.1,4,4,0,0,0,1.2,2.9,4.4,4.4,0,0,0,3.3,1.2,9.7,9.7,0,0,0,6.7-3Z" fill="#231f20"/><path d="M452.3,197.4v3q4.7-3.4,8.6-3.4a6.7,6.7,0,0,1,4,1.1,5.3,5.3,0,0,1,2.1,2.8,18.2,18.2,0,0,1,.5,4.9v12.1h4.2v4.3h-9.1V206q0-2.8-.8-3.7a2.8,2.8,0,0,0-2.1-.9q-3.2,0-7.3,3.2v13.3h4.3v4.3H443v-4.3h4.4V201.7H443v-4.3Z" fill="#231f20"/><path d="M503.9,217.9v4.3h-9.4v-3.7a11.5,11.5,0,0,1-8.9,4.1,12.4,12.4,0,0,1-8.5-3.3q-3.7-3.3-3.7-9.4t3.8-9.7a12.2,12.2,0,0,1,8.5-3.6,11.7,11.7,0,0,1,8.8,4v-9.9h-4.8v-4.3h9.7v31.4Zm-25.3-8.1a8.3,8.3,0,0,0,2.3,6.3,8,8,0,0,0,11.1-.1,8.5,8.5,0,0,0,2.4-6.4q0-4.1-2.5-6.3a8.4,8.4,0,0,0-5.6-2.1,7.3,7.3,0,0,0-5.6,2.5A8.7,8.7,0,0,0,478.6,209.8Z" fill="#231f20"/><path d="M521.3,217.8V191h-4.9v-4.5h14.5a29.4,29.4,0,0,1,7.2.7,8.1,8.1,0,0,1,4.4,3,9,9,0,0,1,1.7,5.7q0,7.1-7.4,8.9l6.3,13h4.4v4.5h-7.8l-8.1-16.7h-5v12.2h4.6v4.5H516.4v-4.5Zm5.4-16.7h4.2a18.6,18.6,0,0,0,4.5-.4,4.4,4.4,0,0,0,2.4-1.6,5.3,5.3,0,0,0,.9-3.3,4.7,4.7,0,0,0-.9-3,4.1,4.1,0,0,0-2.3-1.5,20.1,20.1,0,0,0-4.2-.3h-4.6Z" fill="#231f20"/><path d="M575.1,211H554.1a9.1,9.1,0,0,0,2.7,5.6,8.1,8.1,0,0,0,5.8,2.1,9.5,9.5,0,0,0,8.1-4.1l4.3,1.9a13,13,0,0,1-5.5,4.9,16.4,16.4,0,0,1-7.1,1.6,14.3,14.3,0,0,1-9.8-3.6,12.2,12.2,0,0,1-4.1-9.6,12.4,12.4,0,0,1,3.9-9.4,12.9,12.9,0,0,1,9.1-3.7,13.4,13.4,0,0,1,9.1,3.6Q574.9,203.9,575.1,211Zm-5-3.6a8.9,8.9,0,0,0-2.7-4.7,7.5,7.5,0,0,0-5.4-2.1,7.2,7.2,0,0,0-5,1.9,8.2,8.2,0,0,0-2.5,5Z" fill="#231f20"/><path d="M581.9,217.9V190.8h-4.5v-4.3h9.4v13.7q4.4-3.6,8.4-3.6a7.4,7.4,0,0,1,4.1,1,5.2,5.2,0,0,1,2.2,2.7,16,16,0,0,1,.6,4.9v12.6h4.2v4.3H597V207a25,25,0,0,0-.2-3.8,2.5,2.5,0,0,0-1-1.6,3.1,3.1,0,0,0-1.9-.6q-2.8,0-7.2,3.2v13.6h4.3v4.3H577.4v-4.3Z" fill="#231f20"/><path d="M633.1,217.9v4.3h-8.5v-3a11.1,11.1,0,0,1-7.9,3.4,8.6,8.6,0,0,1-5.9-2.2,7.2,7.2,0,0,1-2.5-5.7,7.3,7.3,0,0,1,2.7-5.8,9.5,9.5,0,0,1,6.4-2.3,12.3,12.3,0,0,1,6.8,2.1v-2.5a9.3,9.3,0,0,0-.4-2.9,3.8,3.8,0,0,0-1.7-1.9,6.5,6.5,0,0,0-3.5-.8,5.6,5.6,0,0,0-5.3,2.9l-4.7-1.2q3.1-5.8,10.8-5.8a14,14,0,0,1,4.9.8,7.1,7.1,0,0,1,3,2,6.4,6.4,0,0,1,1.4,2.6,20.1,20.1,0,0,1,.3,4.4v11.5Zm-9-4.9a10.4,10.4,0,0,0-6.4-2.5,5,5,0,0,0-3.4,1.2,3.9,3.9,0,0,0-1.4,3.1,4,4,0,0,0,1.2,2.9,4.4,4.4,0,0,0,3.3,1.2,9.7,9.7,0,0,0,6.7-3Z" fill="#231f20"/><path d="M634.4,222.3v-4.3h4.4V190.8h-4.4v-4.3h9.2v14.4a12,12,0,0,1,17.7-.7,12.7,12.7,0,0,1,3.5,9.3,13.5,13.5,0,0,1-3.4,9.4,11.2,11.2,0,0,1-8.7,3.8,11.6,11.6,0,0,1-5.5-1.3,9.6,9.6,0,0,1-3.6-2.9v3.7Zm9.4-12.4a8.1,8.1,0,0,0,2.4,6.2,7.7,7.7,0,0,0,5.5,2.3,7.6,7.6,0,0,0,5.6-2.4,8.9,8.9,0,0,0,2.4-6.5,7.9,7.9,0,0,0-13.4-6A8.4,8.4,0,0,0,643.7,209.9Z" fill="#231f20"/><path d="M671.9,217.9V201.7H668v-4.3h8.7v20.6h3.9v4.3H668v-4.3Zm-.7-29a2.9,2.9,0,0,1,.8-2.1,2.8,2.8,0,0,1,2.1-.9,2.9,2.9,0,0,1,2.1.8,2.8,2.8,0,0,1,.9,2.1,2.8,2.8,0,0,1-.9,2.1,2.9,2.9,0,0,1-2.1.9,2.8,2.8,0,0,1-2.1-.9A2.9,2.9,0,0,1,671.2,188.9Z" fill="#231f20"/><path d="M686.4,217.9V190.8H682v-4.3h9.3v31.4h3.8v4.3H682v-4.3Z" fill="#231f20"/><path d="M701.2,217.9V201.7h-3.9v-4.3h8.7v20.6h3.9v4.3H697.3v-4.3Zm-.7-29a2.9,2.9,0,0,1,.8-2.1,2.8,2.8,0,0,1,2.1-.9,2.9,2.9,0,0,1,2.1.8,2.8,2.8,0,0,1,.9,2.1,2.8,2.8,0,0,1-.9,2.1,2.9,2.9,0,0,1-2.1.9,2.8,2.8,0,0,1-2.1-.9A2.9,2.9,0,0,1,700.5,188.9Z" fill="#231f20"/><path d="M711.8,201.7v-4.3h3.2v-3.8L720,189v8.3h4.6v4.3H720v12.1a11.5,11.5,0,0,0,.3,3.6q.3.7,1.6.7a7.3,7.3,0,0,0,2.7-.5V222a11.1,11.1,0,0,1-3.8.7,6.1,6.1,0,0,1-3.6-1,4.2,4.2,0,0,1-1.7-2.5,25,25,0,0,1-.4-5.1V201.7Z" fill="#231f20"/><path d="M752.7,217.9v4.3h-8.5v-3a11.1,11.1,0,0,1-7.9,3.4,8.6,8.6,0,0,1-5.9-2.2,7.2,7.2,0,0,1-2.5-5.7,7.3,7.3,0,0,1,2.7-5.8,9.5,9.5,0,0,1,6.4-2.3,12.3,12.3,0,0,1,6.8,2.1v-2.5a9.3,9.3,0,0,0-.4-2.9,3.8,3.8,0,0,0-1.7-1.9,6.5,6.5,0,0,0-3.5-.8,5.6,5.6,0,0,0-5.3,2.9l-4.7-1.2q3.1-5.8,10.8-5.8a14,14,0,0,1,4.9.8,7.1,7.1,0,0,1,3,2,6.4,6.4,0,0,1,1.4,2.6,20.1,20.1,0,0,1,.3,4.4v11.5Zm-9-4.9a10.4,10.4,0,0,0-6.4-2.5,5,5,0,0,0-3.4,1.2,3.9,3.9,0,0,0-1.4,3.1,4,4,0,0,0,1.2,2.9,4.4,4.4,0,0,0,3.3,1.2,9.7,9.7,0,0,0,6.7-3Z" fill="#231f20"/><path d="M754.2,201.7v-4.3h3.2v-3.8l4.9-4.5v8.3H767v4.3h-4.6v12.1a11.5,11.5,0,0,0,.3,3.6q.3.7,1.6.7a7.3,7.3,0,0,0,2.7-.5V222a11.1,11.1,0,0,1-3.8.7,6.1,6.1,0,0,1-3.6-1,4.2,4.2,0,0,1-1.7-2.5,25,25,0,0,1-.4-5.1V201.7Z" fill="#231f20"/><path d="M773.4,217.9V201.7h-3.9v-4.3h8.7v20.6h3.9v4.3H769.5v-4.3Zm-.7-29a2.9,2.9,0,0,1,.8-2.1,2.8,2.8,0,0,1,2.1-.9,2.9,2.9,0,0,1,2.1.8,2.8,2.8,0,0,1,.9,2.1,2.8,2.8,0,0,1-.9,2.1,2.9,2.9,0,0,1-2.1.9,2.8,2.8,0,0,1-2.1-.9A2.9,2.9,0,0,1,772.7,188.9Z" fill="#231f20"/><path d="M784.5,209.8a12.6,12.6,0,0,1,3.8-9.5,12.8,12.8,0,0,1,9.3-3.7,13,13,0,0,1,9.2,3.6,13.7,13.7,0,0,1,0,19,13,13,0,0,1-9.3,3.7,12.8,12.8,0,0,1-13.1-13.2Zm5.2,0a8.3,8.3,0,0,0,2.3,6,7.9,7.9,0,0,0,11.3,0,8.4,8.4,0,0,0,2.3-6,8.3,8.3,0,0,0-2.3-6,7.6,7.6,0,0,0-5.6-2.4,7.4,7.4,0,0,0-5.7,2.4A8.5,8.5,0,0,0,789.6,209.8Z" fill="#231f20"/><path d="M822.6,197.4v3q4.7-3.4,8.6-3.4a6.7,6.7,0,0,1,4,1.1,5.3,5.3,0,0,1,2.1,2.8,18.2,18.2,0,0,1,.5,4.9v12.1h4.2v4.3h-9.1V206q0-2.8-.8-3.7a2.8,2.8,0,0,0-2.1-.9q-3.2,0-7.3,3.2v13.3h4.3v4.3H813.3v-4.3h4.4V201.7h-4.4v-4.3Z" fill="#231f20"/><path d="M855.7,222.3v-13h4.5v3.2q3.2,5.8,8.4,5.8a6.5,6.5,0,0,0,4.5-1.6,5.4,5.4,0,0,0,1.8-4.2,4.3,4.3,0,0,0-1.5-3.7,18,18,0,0,0-5.6-2.2,41.2,41.2,0,0,1-7.1-2.4,9.1,9.1,0,0,1-3.7-3.3,9,9,0,0,1-1.4-5,9.2,9.2,0,0,1,3-7.2,10.9,10.9,0,0,1,7.5-2.7,13,13,0,0,1,8,2.8v-2.4h4.4v10.9H874v-2.5a8.6,8.6,0,0,0-7.6-4.1,6.7,6.7,0,0,0-4.5,1.4,4.1,4.1,0,0,0-1.6,3.2,4.2,4.2,0,0,0,.8,2.5,4.7,4.7,0,0,0,2,1.6l4.9,1.4a38.1,38.1,0,0,1,6.9,2.3,9.3,9.3,0,0,1,3.7,3.6,10.7,10.7,0,0,1,1.5,5.7,9.9,9.9,0,0,1-3.2,7.6,11.3,11.3,0,0,1-8,3,12.8,12.8,0,0,1-8.8-3.5v3Z" fill="#231f20"/><path d="M909.3,211H888.4a9.1,9.1,0,0,0,2.7,5.6,8.1,8.1,0,0,0,5.8,2.1,9.5,9.5,0,0,0,8.1-4.1l4.3,1.9a13,13,0,0,1-5.5,4.9,16.4,16.4,0,0,1-7.1,1.6,14.3,14.3,0,0,1-9.8-3.6,12.2,12.2,0,0,1-4.1-9.6,12.4,12.4,0,0,1,3.9-9.4,12.9,12.9,0,0,1,9.1-3.7,13.4,13.4,0,0,1,9.1,3.6Q909.2,203.9,909.3,211Zm-5-3.6a8.9,8.9,0,0,0-2.7-4.7,7.5,7.5,0,0,0-5.4-2.1,7.2,7.2,0,0,0-5,1.9,8.2,8.2,0,0,0-2.5,5Z" fill="#231f20"/><path d="M916.7,217.9V201.7h-5v-4.3h8.9V203a9.9,9.9,0,0,1,2.3-3.6,7.3,7.3,0,0,1,3.1-1.9,17,17,0,0,1,4.5-.5h1.3v4.9h-1a15.7,15.7,0,0,0-5.6.7,5,5,0,0,0-2.7,2.7q-.9,2-.9,7.1v5.5H927v4.3H911.7v-4.3Z" fill="#231f20"/><path d="M945,222.7l-8.1-21h-4.4v-4.3H945v4.3h-3.2l5.4,14.1,5.4-14.1H949v-4.3h12.2v4.3h-3.8l-7.9,21Z" fill="#231f20"/><path d="M966,217.9V201.7h-3.9v-4.3h8.7v20.6h3.9v4.3H962.1v-4.3Zm-.7-29a2.9,2.9,0,0,1,.8-2.1,2.8,2.8,0,0,1,2.1-.9,2.9,2.9,0,0,1,2.1.8,2.8,2.8,0,0,1,.9,2.1,2.8,2.8,0,0,1-.9,2.1,2.9,2.9,0,0,1-2.1.9,2.8,2.8,0,0,1-2.1-.9A2.9,2.9,0,0,1,965.3,188.9Z" fill="#231f20"/><path d="M1000.5,197.4v9.4h-4.4a5.9,5.9,0,0,0-2.2-4.1,6.9,6.9,0,0,0-4.3-1.4,6.8,6.8,0,0,0-5.4,2.3,8.9,8.9,0,0,0-2.1,6.1,10.3,10.3,0,0,0,2,6.2,6.6,6.6,0,0,0,5.7,2.7,7.8,7.8,0,0,0,7.5-4.9l4,1.9Q998,223,989.6,223a11.5,11.5,0,0,1-9.3-4,14.1,14.1,0,0,1-3.4-9.3,12.5,12.5,0,0,1,3.7-9.3,11.8,11.8,0,0,1,8.5-3.7,10.4,10.4,0,0,1,7,2.4v-1.7Z" fill="#231f20"/><path d="M1030,211h-20.9a9.1,9.1,0,0,0,2.7,5.6,8.1,8.1,0,0,0,5.8,2.1,9.5,9.5,0,0,0,8.1-4.1l4.3,1.9a13,13,0,0,1-5.5,4.9,16.4,16.4,0,0,1-7.1,1.6,14.3,14.3,0,0,1-9.8-3.6,12.2,12.2,0,0,1-4.1-9.6,12.4,12.4,0,0,1,3.9-9.4,12.9,12.9,0,0,1,9.1-3.7,13.4,13.4,0,0,1,9.1,3.6Q1029.9,203.9,1030,211Zm-5-3.6a8.9,8.9,0,0,0-2.7-4.7,7.5,7.5,0,0,0-5.4-2.1,7.2,7.2,0,0,0-5,1.9,8.2,8.2,0,0,0-2.5,5Z" fill="#231f20"/><path d="M1033.4,222.3v-8.5h4.4v.8a4.1,4.1,0,0,0,1.9,2.9,6.8,6.8,0,0,0,3.9,1.1,7.5,7.5,0,0,0,3.8-.8,2.5,2.5,0,0,0,1.4-2.3,2.2,2.2,0,0,0-1.2-2.1,15.9,15.9,0,0,0-4.6-1.2q-5.1-.9-7.3-2.8a6.4,6.4,0,0,1-2.2-5,6.7,6.7,0,0,1,2.4-5.2,9.2,9.2,0,0,1,6.3-2.1,12.1,12.1,0,0,1,6.1,1.5v-1.1h4.3v8.3h-4.3v-1.5a6.4,6.4,0,0,0-5.8-3.1,5.6,5.6,0,0,0-3.2.8,2.6,2.6,0,0,0-1.2,2.2,1.9,1.9,0,0,0,1.1,1.9,22.9,22.9,0,0,0,4.9,1.1,25.7,25.7,0,0,1,5.5,1.3,6.9,6.9,0,0,1,3.1,2.5,7,7,0,0,1,1.2,4.1,6.6,6.6,0,0,1-2.7,5.5,11,11,0,0,1-6.9,2,10.9,10.9,0,0,1-6.5-1.8v1.4Z" fill="#231f20"/></svg>